<svg
  xmlns="http://www.w3.org/2000/svg"
  viewBox="0 0 24 24"
  width="32"
  height="32"
  fill="#000000"
>
  <path d="M12 2C9.243 2 7 4.243 7 7c0 1.957.867 4.395 1.518 5.954.336.82.68 1.637.982 2.316.17.39.328.753.457 1.091.128-.339.286-.702.457-1.091.302-.68.646-1.497.982-2.316C15.133 11.395 16 8.957 16 7c0-2.757-2.243-5-5-5zm0 2c1.654 0 3 1.346 3 3 0 1.072-.392 2.674-.884 3.75-.227.61-.472 1.225-.68 1.741-.209-.516-.454-1.131-.68-1.741C9.392 9.674 9 8.072 9 7c0-1.654 1.346-3 3-3zm0 9c-1.105 0-2-.895-2-2s.895-2 2-2 2 .895 2 2-.895 2-2 2z" />
</svg>
